Coordinates
version=1
nRows=32
nColumns=12
inDegrees=yes

Units are S.I. units (second, meters, Newtons, ...)
Angles are in degrees

endheader
time	SC_y	SC_z	SC_x	AC_y	AC_z	AC_x	GH_y	GH_z	GH_yy	EL_x	PS_y
       0.0              -57.79          28.79          54.91           63.6         -7.348         -1.576         -30.44          81.93         -78.85          105.3          122.3
   0.04155              -57.79          28.78          54.92           63.6         -7.349         -1.577         -30.43          81.93         -78.85          105.3          122.3
    0.0831              -57.78          28.78          54.92          63.59          -7.35         -1.579         -30.42          81.93         -78.86          105.3          122.3
    0.1247              -57.77          28.77          54.93          63.59         -7.351          -1.58         -30.41          81.93         -78.87          105.3          122.3
    0.1662              -57.77          28.77          54.93          63.58         -7.352         -1.581          -30.4          81.93         -78.87          105.3          122.3
    0.2078              -57.76          28.76          54.93          63.58         -7.353         -1.582          -30.4          81.93         -78.88          105.3          122.3
    0.2493              -57.75          28.75          54.94          63.57         -7.354         -1.584         -30.39          81.93         -78.88          105.3          122.3
    0.2909              -57.74          28.75          54.94          63.56         -7.356         -1.585         -30.37          81.93         -78.89          105.3          122.3
    0.3324              -57.73          28.74          54.95          63.56         -7.357         -1.587         -30.36          81.93          -78.9          105.3          122.3
     0.374              -57.72          28.73          54.95          63.55         -7.359         -1.589         -30.35          81.93         -78.91          105.3          122.3
    0.4155              -57.71          28.73          54.96          63.54         -7.361          -1.59         -30.34          81.93         -78.92          105.3          122.3
    0.4571               -57.7          28.72          54.97          63.53         -7.363         -1.592         -30.32          81.93         -78.92          105.3          122.2
    0.4986              -57.69          28.71          54.97          63.52         -7.365         -1.594         -30.31          81.93         -78.94          105.3          122.2
    0.5402              -57.67           28.7          54.98          63.51         -7.367         -1.597         -30.29          81.92         -78.95          105.3          122.2
    0.5817              -57.66          28.69          54.99           63.5         -7.369         -1.599         -30.27          81.92         -78.96          105.2          122.2
    0.6233              -57.64          28.68           55.0          63.49         -7.372         -1.602         -30.26          81.92         -78.97          105.2          122.2
    0.6648              -57.63          28.66          55.01          63.48         -7.374         -1.605         -30.23          81.92         -78.98          105.2          122.2
    0.7064              -57.61          28.65          55.02          63.47         -7.377         -1.608         -30.21          81.92          -79.0          105.2          122.2
    0.7479              -57.59          28.64          55.03          63.45         -7.381         -1.612         -30.19          81.92         -79.02          105.2          122.2
    0.7895              -57.56          28.62          55.04          63.44         -7.384         -1.616         -30.16          81.92         -79.03          105.2          122.2
     0.831              -57.54           28.6          55.06          63.42         -7.388          -1.62         -30.13          81.92         -79.05          105.2          122.1
    0.8726              -57.51          28.58          55.07           63.4         -7.392         -1.624          -30.1          81.91         -79.08          105.1          122.1
    0.9141              -57.48          28.56          55.09          63.38         -7.397          -1.63         -30.06          81.91          -79.1          105.1          122.1
    0.9557              -57.45          28.53          55.11          63.35         -7.403         -1.635         -30.02          81.91         -79.13          105.1          122.1
    0.9972              -57.41          28.51          55.13          63.33         -7.409         -1.642         -29.98          81.91         -79.16          105.1          122.0
     1.039              -57.37          28.48          55.15           63.3         -7.415         -1.649         -29.93           81.9         -79.19          105.0          122.0
      1.08              -57.33          28.44          55.18          63.26         -7.422         -1.657         -29.87           81.9         -79.23          105.0          122.0
     1.122              -57.27          28.41          55.21          63.23         -7.431         -1.666         -29.81           81.9         -79.27          105.0          121.9
     1.163              -57.22          28.36          55.24          63.18          -7.44         -1.676         -29.74          81.89         -79.32          104.9          121.9
     1.205              -57.15          28.31          55.28          63.14         -7.451         -1.687         -29.66          81.89         -79.37          104.9          121.8
     1.247              -57.07          28.26          55.32          63.08         -7.463           -1.7         -29.56          81.88         -79.43          104.8          121.8
     1.288              -56.99          28.19          55.37          63.02         -7.477         -1.715         -29.46          81.88          -79.5          104.7          121.7
